<svg width="7" height="7" viewBox="0 0 7 7" fill="none" xmlns="http://www.w3.org/2000/svg">
<path id="Vector" d="M6.59561 5.78047C6.56093 4.26747 6.52614 2.74861 6.49146 1.23561C6.48156 0.803323 6.10211 0.440879 5.66982 0.45079C4.15682 0.48548 2.63796 0.520312 1.12496 0.555002C0.692675 0.564913 0.330227 0.944367 0.340133 1.37665C0.374805 2.88966 0.40962 4.40849 0.444292 5.9215C0.454199 6.35378 0.833648 6.71623 1.26593 6.70632C2.77894 6.67163 4.29777 6.63681 5.81078 6.60212C6.04445 6.59677 6.22353 6.50499 6.3491 6.37353C6.35766 6.36456 6.36337 6.35858 6.37194 6.34962C6.37764 6.34364 6.38621 6.33468 6.39191 6.3287C6.51463 6.20023 6.59811 6.01713 6.59561 5.78047ZM2.03242 5.08435C2.00993 4.10294 1.98757 3.12739 1.96508 2.14598C2.94649 2.12348 3.92206 2.1011 4.90347 2.0786C4.92596 3.06001 4.9483 4.03558 4.97079 5.01699C3.99224 5.03651 3.01084 5.059 2.03242 5.08435Z" fill="url(#paint0_linear_5_5517)"/>
<defs>
<linearGradient id="paint0_linear_5_5517" x1="-6.11193" y1="-310.702" x2="10.387" y2="230.417" gradientUnits="userSpaceOnUse">
<stop stop-color="#BE965D"/>
<stop offset="0.2784" stop-color="#976F40"/>
<stop offset="0.4259" stop-color="#C99B61"/>
<stop offset="0.5584" stop-color="#F0BE7B"/>
<stop offset="0.6275" stop-color="#FFCB85"/>
<stop offset="0.7085" stop-color="#EEBC79"/>
<stop offset="0.8693" stop-color="#C0935B"/>
<stop offset="1" stop-color="#976F40"/>
</linearGradient>
</defs>
</svg>
